<?xml version="1.0" encoding="utf-8"?>
<!-- Generator: Adobe Illustrator 26.5.1, SVG Export Plug-In . SVG Version: 6.00 Build 0)  -->
<svg version="1.1" id="Layer_1" xmlns="http://www.w3.org/2000/svg" xmlns:xlink="http://www.w3.org/1999/xlink" x="0px" y="0px"
	 viewBox="0 0 20 20" style="enable-background:new 0 0 20 20;" xml:space="preserve">
<style type="text/css">
	.st0{fill:#FEC83B;}
	.st1{fill:#04348C;}
</style>
<path class="st0" d="M6621.91,6247.89c-3.35-19.09-15.4-34.16-23.11-51.57c-7.7-17.41-5.69-20.93-13.06-25.45
	c-7.37-4.52-7.37,28.47-7.37,28.47s-0.33-29.14-10.38-30.14c-10.05-1-3.01,35.83-3.01,35.83s-5.19-24.78-14.73-23.11
	c-6.5,1.14-1.51,28.36,2.34,45.62c0.93,4.15-3.64,7.27-7.23,4.98c-4.73-3.02-9.37-4.11-9.84,2.65c-0.82,11.66,17.47,23.1,24.1,26.85
	c1.47,0.83,2.38,2.37,2.39,4.06c0.07,9.74-0.32,41.65-8.41,41.08c-6.38-0.45-31.19-13.63-46.93-22.31
	c-5.49-3.03-9.94-7.66-12.76-13.26l-10.64-21.13l-47.6-94.49c-14.27-28.33-54.66-28.51-69.17-0.3l-48.41,94.07l-11.98,23.28l0,0
	c0,0-108.82-10.91-116.36,24.75c-7.16,33.88,11.52,74.1,55.16,105.59c6.45,4.65,15.19,4.67,21.55-0.1c0.08-0.06,0.16-0.12,0.25-0.19
	c0.02-0.01,0.04-0.02,0.06-0.04l0.03-0.02c1.8-1.22,4.19-1.06,5.81,0.39c5.8,5.18,13.23,8.4,21.67,8.44l31.9,0.14
	c2.61,0.01,4.72,2.13,4.72,4.74v148.68c0,1.05-0.35,2.07-0.99,2.9l-17.92,23.23c-2.4,3.12-0.18,7.64,3.76,7.64h84.39h90.83
	c4.39,0,6.42-5.46,3.1-8.33l-25.9-22.4c-1.04-0.9-1.64-2.21-1.64-3.59v-147.5c0-2.63,2.14-4.75,4.76-4.74l34.38,0.15
	c21.09,0.09,36.08-19.68,34.97-40.65c-0.17-3.13,2.6-5.65,5.67-4.98c17.77,3.87,38.83-1.4,55.17-21.63
	C6622.58,6319.39,6623.73,6258.22,6621.91,6247.89z M6248.87,6333c-3.04-3.51,0.26-8.85,4.75-7.69c6.22,1.6,14.08,3.01,23.7,3.65
	l0,0l-8.98,17.44c-1.6,3.11-5.89,3.47-8,0.68C6256.5,6342.03,6252.52,6337.21,6248.87,6333z"/>
<path class="st1" d="M6405.24,6599.69c-1.38,0-2.5-1.12-2.5-2.5v-164.93c0-1.38,1.12-2.5,2.5-2.5s2.5,1.12,2.5,2.5v164.93
	C6407.74,6598.57,6406.62,6599.69,6405.24,6599.69z"/>
<path class="st1" d="M6245.93,6330.31c-0.59,0-1.18-0.21-1.66-0.63l-11.95-10.61c-1.03-0.92-1.13-2.5-0.21-3.53
	c0.92-1.03,2.5-1.13,3.53-0.21l11.95,10.61c1.03,0.92,1.13,2.5,0.21,3.53C6247.3,6330.03,6246.62,6330.31,6245.93,6330.31z"/>
<path class="st1" d="M6262.51,6405.92c-0.35,0-0.71-0.08-1.06-0.24c-1.25-0.58-1.79-2.07-1.21-3.32
	c3.09-6.61,10.31-10.63,16.68-14.17c5.93-3.3,11.54-6.42,11.83-10.5c0.06-0.85-0.08-1.26-0.19-1.32c-1.19-0.71-5.35,0.59-9.97,2.91
	c-1.67,0.99-3.47,2.02-5.43,3.1c-1.18,0.65-2.66,0.25-3.35-0.91c-0.69-1.16-0.34-2.65,0.8-3.38c1.16-0.75,3.27-2.04,5.74-3.3
	c8.48-5.1,13.02-9.1,13.82-12.18c0.31-1.21,0.07-2.36-0.8-3.76c-0.03-0.05-0.1-0.16-0.47-0.23c-1.72-0.36-4.88,0.68-8.41,2.33
	c-5.88,5.51-12.56,7.33-12.98,7.44c-1.17,0.31-2.4-0.27-2.9-1.38s-0.15-2.41,0.85-3.1c1.56-1.08,6.64-4.51,12.1-7.13
	c2.35-2.33,4.49-5.37,5.72-9.29c0.59-1.87,0.52-2.69,0.47-2.96c-1.62-0.45-7.75,2.25-12.88,5.72c-1.15,0.77-2.7,0.47-3.47-0.67
	s-0.47-2.7,0.67-3.47c4.14-2.79,14.24-8.92,18.75-5.56c2.09,1.56,2.51,4.4,1.24,8.45c-0.55,1.74-1.23,3.33-2.02,4.79
	c1.43-0.25,2.75-0.3,3.88-0.06c1.62,0.33,2.9,1.19,3.71,2.49c1.61,2.58,2.07,5.09,1.4,7.66c-0.64,2.47-2.32,4.93-5.31,7.62
	c0.51,0.13,0.98,0.32,1.42,0.58c1.33,0.79,2.87,2.47,2.62,5.98c-0.49,6.78-7.24,10.54-14.38,14.51
	c-5.99,3.33-12.18,6.77-14.58,11.92C6264.35,6405.39,6263.45,6405.92,6262.51,6405.92z"/>
<ellipse class="st1" cx="6381.1" cy="6216.73" rx="5.02" ry="9.04"/>
<ellipse class="st1" cx="6408.23" cy="6216.73" rx="5.02" ry="9.04"/>
<path class="st1" d="M6396.74,6254.96c-8.48,0-14.45-2.76-14.57-2.82c-1.25-0.59-1.77-2.09-1.18-3.33c0.59-1.24,2.08-1.77,3.33-1.18
	c0.82,0.39,19.75,8.98,37.06-8.54c0.97-0.98,2.55-0.99,3.54-0.02c0.98,0.97,0.99,2.55,0.02,3.54
	C6415.23,6252.43,6404.84,6254.96,6396.74,6254.96z"/>
<path class="st1" d="M6428.4,6244.45c-2.93,0-5.42-0.78-7.43-2.34c-5.21-4.03-4.87-11.63-4.86-11.95c0.07-1.38,1.23-2.44,2.63-2.37
	c1.38,0.07,2.43,1.24,2.37,2.62c0,0.07-0.2,5.34,2.94,7.75c2.1,1.61,5.42,1.71,9.88,0.29c1.32-0.42,2.72,0.31,3.14,1.63
	c0.42,1.32-0.31,2.72-1.63,3.14C6432.87,6244.04,6430.52,6244.45,6428.4,6244.45z"/>
<path class="st0" d="M18.65,5.45c-0.13-0.73-0.59-1.3-0.88-1.97c-0.29-0.66-0.22-0.8-0.5-0.97c-0.28-0.17-0.28,1.09-0.28,1.09
	s-0.01-1.11-0.4-1.15c-0.38-0.04-0.12,1.37-0.12,1.37s-0.2-0.95-0.56-0.88c-0.25,0.04-0.06,1.08,0.09,1.74
	c0.04,0.16-0.14,0.28-0.28,0.19c-0.18-0.12-0.36-0.16-0.38,0.1c-0.03,0.45,0.67,0.88,0.92,1.03c0.06,0.03,0.09,0.09,0.09,0.16
	c0,0.37-0.01,1.59-0.32,1.57c-0.24-0.02-1.19-0.52-1.79-0.85c-0.21-0.12-0.38-0.29-0.49-0.51l-0.41-0.81l-1.82-3.61
	C11,0.85,9.45,0.85,8.9,1.92L7.05,5.52L6.59,6.41v0c0,0-4.16-0.42-4.44,0.95c-0.27,1.29,0.44,2.83,2.11,4.03
	c0.25,0.18,0.58,0.18,0.82,0c0,0,0.01,0,0.01-0.01c0,0,0,0,0,0l0,0c0.07-0.05,0.16-0.04,0.22,0.01c0.22,0.2,0.51,0.32,0.83,0.32
	l1.22,0.01c0.1,0,0.18,0.08,0.18,0.18v5.68c0,0.04-0.01,0.08-0.04,0.11l-0.68,0.89c-0.09,0.12-0.01,0.29,0.14,0.29h3.22h3.47
	c0.17,0,0.25-0.21,0.12-0.32l-0.99-0.86c-0.04-0.03-0.06-0.08-0.06-0.14v-5.63c0-0.1,0.08-0.18,0.18-0.18l1.31,0.01
	c0.81,0,1.38-0.75,1.34-1.55c-0.01-0.12,0.1-0.22,0.22-0.19c0.68,0.15,1.48-0.05,2.11-0.83C18.68,8.18,18.72,5.84,18.65,5.45z
	 M4.41,8.7C4.29,8.56,4.42,8.36,4.59,8.4c0.24,0.06,0.54,0.11,0.9,0.14l0,0L5.15,9.21C5.09,9.33,4.93,9.34,4.85,9.23
	C4.7,9.04,4.55,8.86,4.41,8.7z"/>
<path class="st1" d="M10.38,18.88c-0.05,0-0.1-0.04-0.1-0.1v-6.3c0-0.05,0.04-0.1,0.1-0.1c0.05,0,0.1,0.04,0.1,0.1v6.3
	C10.47,18.84,10.43,18.88,10.38,18.88z"/>
<path class="st1" d="M4.3,8.59c-0.02,0-0.05-0.01-0.06-0.02L3.78,8.16c-0.04-0.04-0.04-0.1-0.01-0.13C3.8,7.99,3.86,7.99,3.9,8.02
	l0.46,0.41C4.4,8.46,4.4,8.52,4.37,8.56C4.35,8.58,4.32,8.59,4.3,8.59z"/>
<path class="st1" d="M4.93,11.48c-0.01,0-0.03,0-0.04-0.01c-0.05-0.02-0.07-0.08-0.05-0.13c0.12-0.25,0.39-0.41,0.64-0.54
	c0.23-0.13,0.44-0.25,0.45-0.4c0-0.03,0-0.05-0.01-0.05c-0.05-0.03-0.2,0.02-0.38,0.11c-0.06,0.04-0.13,0.08-0.21,0.12
	c-0.05,0.02-0.1,0.01-0.13-0.03c-0.03-0.04-0.01-0.1,0.03-0.13c0.04-0.03,0.12-0.08,0.22-0.13c0.32-0.19,0.5-0.35,0.53-0.47
	c0.01-0.05,0-0.09-0.03-0.14c0,0,0-0.01-0.02-0.01C5.87,9.66,5.75,9.7,5.62,9.76c-0.22,0.21-0.48,0.28-0.5,0.28
	c-0.04,0.01-0.09-0.01-0.11-0.05S5,9.9,5.04,9.88C5.1,9.83,5.29,9.7,5.5,9.6C5.59,9.51,5.67,9.4,5.72,9.25
	c0.02-0.07,0.02-0.1,0.02-0.11c-0.06-0.02-0.3,0.09-0.49,0.22C5.2,9.38,5.14,9.37,5.11,9.33C5.09,9.28,5.1,9.23,5.14,9.2
	C5.3,9.09,5.68,8.86,5.86,8.98c0.08,0.06,0.1,0.17,0.05,0.32C5.88,9.37,5.86,9.43,5.83,9.49c0.05-0.01,0.1-0.01,0.15,0
	C6.04,9.5,6.09,9.53,6.12,9.58c0.06,0.1,0.08,0.19,0.05,0.29c-0.02,0.09-0.09,0.19-0.2,0.29c0.02,0.01,0.04,0.01,0.05,0.02
	c0.05,0.03,0.11,0.09,0.1,0.23c-0.02,0.26-0.28,0.4-0.55,0.55c-0.23,0.13-0.46,0.26-0.56,0.46C5,11.46,4.96,11.48,4.93,11.48z"/>
<ellipse class="st1" cx="9.46" cy="4.26" rx="0.19" ry="0.35"/>
<ellipse class="st1" cx="10.49" cy="4.26" rx="0.19" ry="0.35"/>
<path class="st1" d="M10.05,5.72c-0.32,0-0.55-0.11-0.56-0.11C9.45,5.59,9.43,5.53,9.45,5.48c0.02-0.05,0.08-0.07,0.13-0.05
	C9.61,5.45,10.33,5.78,11,5.11c0.04-0.04,0.1-0.04,0.13,0c0.04,0.04,0.04,0.1,0,0.13C10.76,5.62,10.36,5.72,10.05,5.72z"/>
<path class="st1" d="M11.26,5.31c-0.11,0-0.21-0.03-0.28-0.09c-0.2-0.15-0.19-0.44-0.19-0.46c0-0.05,0.05-0.09,0.1-0.09
	c0.05,0,0.09,0.05,0.09,0.1c0,0-0.01,0.2,0.11,0.3c0.08,0.06,0.21,0.07,0.38,0.01c0.05-0.02,0.1,0.01,0.12,0.06
	c0.02,0.05-0.01,0.1-0.06,0.12C11.43,5.3,11.34,5.31,11.26,5.31z"/>
</svg>
