<?xml version="1.0" encoding="utf-8"?>
<!-- Generator: Adobe Illustrator 26.5.1, SVG Export Plug-In . SVG Version: 6.00 Build 0)  -->
<svg version="1.1" id="Layer_1" xmlns="http://www.w3.org/2000/svg" xmlns:xlink="http://www.w3.org/1999/xlink" x="0px" y="0px"
	 viewBox="0 0 213.8 49.6" style="enable-background:new 0 0 213.8 49.6;" xml:space="preserve">
<style type="text/css">
	.st0{enable-background:new    ;}
	.st1{fill:#F4C519;}
	.st2{fill:#1049AF;}
	.st3{fill:#F7BC16;}
	.st4{fill:#04348C;}
</style>
<g class="st0">
	<path class="st1" d="M13.1,14.5H16V26c0,0.6,0.3,0.8,0.8,0.8h5.3c0.4,0,0.6,0.2,0.6,0.7c0,1-0.4,1.6-1.1,1.6H16
		c-1,0-1.7-0.2-2.2-0.6s-0.7-1-0.7-1.9C13.1,26.6,13.1,14.5,13.1,14.5z M20.5,19.8h4v-6.4h2.9v19.5c0,2.1-0.6,3.2-1.7,3.2h-0.4
		c-0.5,0-0.8-0.3-0.8-0.8v-13h-4V19.8z M32.3,33.1c0,2.1-0.6,3.2-1.7,3.2h-0.4c-0.5,0-0.8-0.3-0.8-0.8V13.3h2.8v19.8H32.3z"/>
	<path class="st1" d="M47.9,16.6c0,3-0.9,5.5-2.6,7.7c-1.8,2.2-4.1,3.9-7.1,5.1c-0.5,0.2-0.9,0-1.3-0.7c-0.3-0.7-0.2-1.1,0.3-1.4
		c1.1-0.4,2.1-1,3-1.7s1.8-1.5,2.5-2.4c1.5-1.8,2.2-4,2.2-6.4h-7.6v-2.3h9.3c0.9,0,1.3,0.4,1.3,1.3C47.9,15.8,47.9,16.6,47.9,16.6z
		 M54.5,33.1c0,2.2-0.6,3.2-1.8,3.2h-0.4c-0.5,0-0.8-0.3-0.8-0.8V13.3h2.9v7.2h2.9c0.4,0,0.6,0.3,0.6,0.8c0,1.1-0.4,1.7-1.2,1.7
		h-2.4v10.1H54.5z"/>
</g>
<g class="st0">
	<path class="st1" d="M65.7,29.4c0,0-0.2,0-0.5,0s-0.5-0.1-0.8-0.4c-0.2-0.2-0.3-0.3-0.4-0.5c0-0.1,0-0.3,0-0.4c0-0.2,0-0.3,0.1-0.5
		c0.1-0.1,0.2-0.3,0.4-0.4c1.5-1.3,2.7-2.8,3.4-4.5s1.1-3.6,1.1-5.9v-2.7h2.9v2.7c0,2.7,0.5,4.9,1.5,6.6s2.1,3.1,3.5,4.1
		c0.1,0.1,0.2,0.2,0.3,0.3c0.1,0.1,0.1,0.2,0.1,0.4c0,0.2-0.1,0.3-0.2,0.5s-0.3,0.4-0.4,0.5c-0.2,0.2-0.4,0.3-0.6,0.4
		s-0.4,0.1-0.6-0.1c-0.8-0.5-1.7-1.3-2.8-2.6c-1.1-1.3-1.8-2.4-2.2-3.4c-0.6,1.3-1.3,2.4-2.1,3.3C67.6,27.9,66.7,28.7,65.7,29.4z
		 M82.6,33.1c0,2.2-0.6,3.2-1.7,3.2h-0.4c-0.5,0-0.8-0.3-0.8-0.8V13.3h2.9v7.2h2.9c0.4,0,0.7,0.3,0.7,0.8c0,1.1-0.4,1.7-1.2,1.7
		h-2.4V33.1z"/>
	<path class="st1" d="M86.6,24.5h21.3c0.4,0,0.6,0.3,0.6,0.8c0,1-0.4,1.5-1.1,1.5H86.6V24.5z M89.6,13.6h2.9v5
		c0,0.6,0.3,0.8,0.8,0.8h12.1c0.4,0,0.6,0.2,0.6,0.7c0,1-0.4,1.6-1.1,1.6H92.5c-1,0-1.7-0.2-2.2-0.6s-0.7-1-0.7-1.9
		C89.6,19.2,89.6,13.6,89.6,13.6z M89.8,29.2h2.9v3.6c0,0.6,0.3,0.8,0.8,0.8h11.6c0.4,0,0.6,0.2,0.6,0.7c0,1-0.4,1.6-1.1,1.6h-12
		c-1,0-1.7-0.2-2.1-0.6c-0.4-0.4-0.7-1-0.7-1.9C89.8,33.4,89.8,29.2,89.8,29.2z"/>
</g>
<g class="st0">
	<path class="st2" d="M136.5,28.5c0.2,0.5,0.2,0.9,0.1,1.4c-0.1,0.4-0.5,0.7-1,0.9c-0.3,0.2-0.8,0.3-1.5,0.5s-1.4,0.4-2.3,0.5
		c-0.9,0.2-1.8,0.3-2.9,0.4c-1,0.1-2.1,0.2-3.2,0.2c-1.1,0-2.1-0.1-3.2-0.2c-1.1-0.1-2-0.2-2.9-0.4c-0.9-0.2-1.7-0.3-2.4-0.5
		c-0.7-0.2-1.2-0.4-1.6-0.5c-0.5-0.2-0.8-0.5-1-0.9c-0.2-0.5-0.1-0.9,0.2-1.4c0.1-0.2,0.3-0.4,0.5-0.4c0.2-0.1,0.5-0.1,0.7-0.1
		s0.5,0.1,0.7,0.1s0.5,0.1,0.7,0.2s0.5,0.2,1,0.3s1.1,0.2,1.8,0.4c0.7,0.1,1.5,0.2,2.5,0.3c0.9,0.1,1.9,0.1,3,0.1
		c1.2,0,2.2,0,3.1-0.1c0.9-0.1,1.6-0.2,2.2-0.4c0.6-0.1,1.1-0.2,1.5-0.4c0.4-0.1,0.7-0.2,0.9-0.3c0.2-0.1,0.5-0.1,0.7-0.2
		c0.3-0.1,0.6-0.1,0.9-0.1c0.3,0,0.5,0,0.8,0.1C136.2,28.1,136.4,28.2,136.5,28.5z M128.8,26.1c0.9-3.2,1.3-6,1.3-8.3V17h-12.2v-3
		h14.2c1,0,1.5,0.5,1.5,1.4v2.1c0,2.1-0.5,4.7-1.4,7.6c-0.2,0.6-0.5,0.9-1.1,0.9h-2.3V26.1z"/>
</g>
<g class="st0">
	<path class="st2" d="M142.9,14h10.9c0.4,0,0.7,0.3,0.7,1c0,1.2-0.4,1.8-1.2,1.8h-2.9v0.7c0,0.6,0.4,1.4,1.1,2.2
		c0.8,0.9,1.8,1.7,3,2.4c0.6,0.4,0.7,1,0.2,1.8s-1.1,1.1-1.7,0.7c-1.8-0.8-3.2-1.9-4.3-3.1c-1,1.4-2.5,2.5-4.3,3.5
		c-0.6,0.3-1.2,0.1-1.7-0.7c-0.5-0.7-0.4-1.3,0.2-1.8c1.2-0.8,2.2-1.7,2.9-2.6c0.7-1,1-1.8,1-2.4v-0.7H143V14H142.9z M149,26.1v2.6
		h8.1v-2.6h3.5v5.3c0,3.3-0.8,4.9-2.5,4.9h-9.6c-1.9,0-2.9-1-2.9-2.9v-7.3C145.6,26.1,149,26.1,149,26.1z M149.9,33.5h6.4
		c0.5,0,0.8-0.5,0.8-1.5v-0.5H149v1.1C149,33.2,149.3,33.5,149.9,33.5z M160.5,21.7c0,2.4-0.7,3.5-2.1,3.5H158
		c-0.6,0-0.9-0.3-0.9-0.9V13.1h3.5v8.6H160.5z"/>
</g>
<g>
	<path class="st3" d="M200.66,16.68c-0.28-1.58-1.28-2.83-1.91-4.27c-0.64-1.44-0.47-1.73-1.08-2.11c-0.61-0.37-0.61,2.36-0.61,2.36
		s-0.03-2.41-0.86-2.5c-0.83-0.08-0.25,2.97-0.25,2.97s-0.43-2.05-1.22-1.91c-0.54,0.09-0.12,2.35,0.19,3.78
		c0.08,0.34-0.3,0.6-0.6,0.41c-0.39-0.25-0.78-0.34-0.82,0.22c-0.07,0.97,1.45,1.91,2,2.22c0.12,0.07,0.2,0.2,0.2,0.34
		c0.01,0.81-0.03,3.45-0.7,3.4c-0.53-0.04-2.58-1.13-3.89-1.85c-0.45-0.25-0.82-0.63-1.06-1.1l-0.88-1.75l-3.94-7.82
		c-1.18-2.35-4.53-2.36-5.73-0.02l-4.01,7.79l-0.99,1.93v0c0,0-9.01-0.9-9.63,2.05c-0.59,2.8,0.95,6.14,4.57,8.74
		c0.53,0.39,1.26,0.39,1.78-0.01c0.01-0.01,0.01-0.01,0.02-0.02c0,0,0,0,0,0l0,0c0.15-0.1,0.35-0.09,0.48,0.03
		c0.48,0.43,1.1,0.7,1.79,0.7l2.64,0.01c0.22,0,0.39,0.18,0.39,0.39v12.31c0,0.09-0.03,0.17-0.08,0.24L175,45.14
		c-0.2,0.26-0.02,0.63,0.31,0.63h6.99h7.52c0.36,0,0.53-0.45,0.26-0.69l-2.14-1.85c-0.09-0.07-0.14-0.18-0.14-0.3V30.71
		c0-0.22,0.18-0.39,0.39-0.39l2.85,0.01c1.75,0.01,2.99-1.63,2.9-3.37c-0.01-0.26,0.22-0.47,0.47-0.41
		c1.47,0.32,3.22-0.12,4.57-1.79C200.72,22.6,200.81,17.54,200.66,16.68z M169.77,23.73c-0.25-0.29,0.02-0.73,0.39-0.64
		c0.51,0.13,1.17,0.25,1.96,0.3l0,0l-0.74,1.44c-0.13,0.26-0.49,0.29-0.66,0.06C170.4,24.48,170.07,24.08,169.77,23.73z"/>
	<path class="st4" d="M182.72,45.81c-0.11,0-0.21-0.09-0.21-0.21V31.95c0-0.11,0.09-0.21,0.21-0.21s0.21,0.09,0.21,0.21V45.6
		C182.93,45.72,182.83,45.81,182.72,45.81z"/>
	<path class="st4" d="M169.53,23.51c-0.05,0-0.1-0.02-0.14-0.05l-0.99-0.88c-0.09-0.08-0.09-0.21-0.02-0.29
		c0.08-0.09,0.21-0.09,0.29-0.02l0.99,0.88c0.09,0.08,0.09,0.21,0.02,0.29C169.64,23.48,169.58,23.51,169.53,23.51z"/>
	<path class="st4" d="M170.9,29.77c-0.03,0-0.06-0.01-0.09-0.02c-0.1-0.05-0.15-0.17-0.1-0.28c0.26-0.55,0.85-0.88,1.38-1.17
		c0.49-0.27,0.96-0.53,0.98-0.87c0.01-0.07-0.01-0.1-0.02-0.11c-0.1-0.06-0.44,0.05-0.83,0.24c-0.14,0.08-0.29,0.17-0.45,0.26
		c-0.1,0.05-0.22,0.02-0.28-0.08c-0.06-0.1-0.03-0.22,0.07-0.28c0.1-0.06,0.27-0.17,0.48-0.27c0.7-0.42,1.08-0.75,1.14-1.01
		c0.03-0.1,0.01-0.2-0.07-0.31c0,0-0.01-0.01-0.04-0.02c-0.14-0.03-0.4,0.06-0.7,0.19c-0.49,0.46-1.04,0.61-1.07,0.62
		c-0.1,0.03-0.2-0.02-0.24-0.11c-0.04-0.09-0.01-0.2,0.07-0.26c0.13-0.09,0.55-0.37,1-0.59c0.19-0.19,0.37-0.44,0.47-0.77
		c0.05-0.15,0.04-0.22,0.04-0.25c-0.13-0.04-0.64,0.19-1.07,0.47c-0.09,0.06-0.22,0.04-0.29-0.06c-0.06-0.09-0.04-0.22,0.06-0.29
		c0.34-0.23,1.18-0.74,1.55-0.46c0.17,0.13,0.21,0.36,0.1,0.7c-0.05,0.14-0.1,0.28-0.17,0.4c0.12-0.02,0.23-0.02,0.32-0.01
		c0.13,0.03,0.24,0.1,0.31,0.21c0.13,0.21,0.17,0.42,0.12,0.63c-0.05,0.2-0.19,0.41-0.44,0.63c0.04,0.01,0.08,0.03,0.12,0.05
		c0.11,0.07,0.24,0.2,0.22,0.49c-0.04,0.56-0.6,0.87-1.19,1.2c-0.5,0.28-1.01,0.56-1.21,0.99C171.05,29.72,170.98,29.77,170.9,29.77
		z"/>
	<ellipse class="st4" cx="180.72" cy="14.1" rx="0.42" ry="0.75"/>
	<ellipse class="st4" cx="182.97" cy="14.1" rx="0.42" ry="0.75"/>
	<path class="st4" d="M182.02,17.27c-0.7,0-1.2-0.23-1.21-0.23c-0.1-0.05-0.15-0.17-0.1-0.28c0.05-0.1,0.17-0.15,0.28-0.1
		c0.07,0.03,1.64,0.74,3.07-0.71c0.08-0.08,0.21-0.08,0.29,0c0.08,0.08,0.08,0.21,0,0.29C183.55,17.06,182.69,17.27,182.02,17.27z"
		/>
	<path class="st4" d="M184.64,16.4c-0.24,0-0.45-0.06-0.62-0.19c-0.43-0.33-0.4-0.96-0.4-0.99c0.01-0.11,0.1-0.2,0.22-0.2
		c0.11,0.01,0.2,0.1,0.2,0.22c0,0.01-0.02,0.44,0.24,0.64c0.17,0.13,0.45,0.14,0.82,0.02c0.11-0.03,0.23,0.03,0.26,0.13
		c0.03,0.11-0.03,0.23-0.13,0.26C185.01,16.36,184.81,16.4,184.64,16.4z"/>
</g>
</svg>
