<?xml version="1.0" encoding="utf-8"?>
<!-- Generator: Adobe Illustrator 26.5.0, SVG Export Plug-In . SVG Version: 6.00 Build 0)  -->
<svg version="1.1" id="Layer_1" xmlns="http://www.w3.org/2000/svg" xmlns:xlink="http://www.w3.org/1999/xlink" x="0px" y="0px"
	 viewBox="0 0 14400 14400" style="enable-background:new 0 0 14400 14400;" xml:space="preserve">
<style type="text/css">
	.st0{fill:#FEC83B;}
	.st1{fill:#04348C;}
</style>
<g>
	<path class="st0" d="M7207.44,7195.13c-0.12-0.7-0.56-1.25-0.85-1.89c-0.28-0.64-0.21-0.77-0.48-0.93s-0.27,1.04-0.27,1.04
		s-0.01-1.07-0.38-1.1c-0.37-0.04-0.11,1.31-0.11,1.31s-0.19-0.91-0.54-0.85c-0.24,0.04-0.06,1.04,0.09,1.67
		c0.03,0.15-0.13,0.27-0.27,0.18c-0.17-0.11-0.34-0.15-0.36,0.1c-0.03,0.43,0.64,0.85,0.88,0.98c0.05,0.03,0.09,0.09,0.09,0.15
		c0,0.36-0.01,1.53-0.31,1.51c-0.23-0.02-1.14-0.5-1.72-0.82c-0.2-0.11-0.36-0.28-0.47-0.49l-0.39-0.77l-1.74-3.46
		c-0.52-1.04-2-1.04-2.54-0.01l-1.77,3.45l-0.44,0.85l0,0c0,0-3.99-0.4-4.26,0.91c-0.26,1.24,0.42,2.72,2.02,3.87
		c0.24,0.17,0.56,0.17,0.79,0c0,0,0.01,0,0.01-0.01c0,0,0,0,0,0l0,0c0.07-0.04,0.15-0.04,0.21,0.01c0.21,0.19,0.48,0.31,0.79,0.31
		l1.17,0c0.1,0,0.17,0.08,0.17,0.17v5.45c0,0.04-0.01,0.08-0.04,0.11l-0.66,0.85c-0.09,0.11-0.01,0.28,0.14,0.28h3.09h3.33
		c0.16,0,0.24-0.2,0.11-0.31l-0.95-0.82c-0.04-0.03-0.06-0.08-0.06-0.13v-5.41c0-0.1,0.08-0.17,0.17-0.17l1.26,0.01
		c0.77,0,1.32-0.72,1.28-1.49c-0.01-0.11,0.1-0.21,0.21-0.18c0.65,0.14,1.42-0.05,2.02-0.79
		C7207.46,7197.75,7207.5,7195.51,7207.44,7195.13z M7193.76,7198.25c-0.11-0.13,0.01-0.32,0.17-0.28c0.23,0.06,0.52,0.11,0.87,0.13
		l0,0l-0.33,0.64c-0.06,0.11-0.22,0.13-0.29,0.03C7194.04,7198.58,7193.9,7198.4,7193.76,7198.25z"/>
	<path class="st1" d="M7199.49,7208.02c-0.05,0-0.09-0.04-0.09-0.09v-6.05c0-0.05,0.04-0.09,0.09-0.09s0.09,0.04,0.09,0.09v6.05
		C7199.59,7207.98,7199.55,7208.02,7199.49,7208.02z"/>
	<path class="st1" d="M7193.66,7198.15c-0.02,0-0.04-0.01-0.06-0.02l-0.44-0.39c-0.04-0.03-0.04-0.09-0.01-0.13
		c0.03-0.04,0.09-0.04,0.13-0.01l0.44,0.39c0.04,0.03,0.04,0.09,0.01,0.13C7193.71,7198.14,7193.68,7198.15,7193.66,7198.15z"/>
	<path class="st1" d="M7194.26,7200.92c-0.01,0-0.03,0-0.04-0.01c-0.05-0.02-0.07-0.08-0.04-0.12c0.11-0.24,0.38-0.39,0.61-0.52
		c0.22-0.12,0.42-0.24,0.43-0.38c0-0.03,0-0.05-0.01-0.05c-0.04-0.03-0.2,0.02-0.37,0.11c-0.06,0.04-0.13,0.07-0.2,0.11
		c-0.04,0.02-0.1,0.01-0.12-0.03c-0.03-0.04-0.01-0.1,0.03-0.12c0.04-0.03,0.12-0.07,0.21-0.12c0.31-0.19,0.48-0.33,0.51-0.45
		c0.01-0.04,0-0.09-0.03-0.14c0,0,0-0.01-0.02-0.01c-0.06-0.01-0.18,0.03-0.31,0.09c-0.22,0.2-0.46,0.27-0.48,0.27
		c-0.04,0.01-0.09-0.01-0.11-0.05c-0.02-0.04-0.01-0.09,0.03-0.11c0.06-0.04,0.24-0.17,0.44-0.26c0.09-0.09,0.16-0.2,0.21-0.34
		c0.02-0.07,0.02-0.1,0.02-0.11c-0.06-0.02-0.28,0.08-0.47,0.21c-0.04,0.03-0.1,0.02-0.13-0.02c-0.03-0.04-0.02-0.1,0.02-0.13
		c0.15-0.1,0.52-0.33,0.69-0.2c0.08,0.06,0.09,0.16,0.05,0.31c-0.02,0.06-0.05,0.12-0.07,0.18c0.05-0.01,0.1-0.01,0.14,0
		c0.06,0.01,0.11,0.04,0.14,0.09c0.06,0.09,0.08,0.19,0.05,0.28c-0.02,0.09-0.08,0.18-0.19,0.28c0.02,0,0.04,0.01,0.05,0.02
		c0.05,0.03,0.1,0.09,0.1,0.22c-0.02,0.25-0.27,0.39-0.53,0.53c-0.22,0.12-0.45,0.25-0.53,0.44
		C7194.33,7200.9,7194.3,7200.92,7194.26,7200.92z"/>
	<ellipse class="st1" cx="7198.61" cy="7193.99" rx="0.18" ry="0.33"/>
	<ellipse class="st1" cx="7199.6" cy="7193.99" rx="0.18" ry="0.33"/>
	<path class="st1" d="M7199.18,7195.39c-0.31,0-0.53-0.1-0.53-0.1c-0.05-0.02-0.06-0.08-0.04-0.12c0.02-0.05,0.08-0.06,0.12-0.04
		l0,0c0.03,0.01,0.72,0.33,1.36-0.31c0.04-0.04,0.09-0.04,0.13,0c0.04,0.04,0.04,0.09,0,0.13
		C7199.86,7195.29,7199.48,7195.39,7199.18,7195.39z"/>
	<path class="st1" d="M7200.34,7195c-0.11,0-0.2-0.03-0.27-0.09c-0.19-0.15-0.18-0.43-0.18-0.44c0-0.05,0.05-0.09,0.1-0.09
		c0.05,0,0.09,0.05,0.09,0.1c0,0-0.01,0.2,0.11,0.28c0.08,0.06,0.2,0.06,0.36,0.01c0.05-0.02,0.1,0.01,0.11,0.06
		c0.02,0.05-0.01,0.1-0.06,0.11C7200.51,7194.99,7200.42,7195,7200.34,7195z"/>
</g>
</svg>
